<?xml version="1.0" encoding="utf-8"?>
<!-- Generator: Adobe Illustrator 16.0.0, SVG Export Plug-In . SVG Version: 6.00 Build 0)  -->
<!DOCTYPE svg PUBLIC "-//W3C//DTD SVG 1.1//EN" "http://www.w3.org/Graphics/SVG/1.1/DTD/svg11.dtd">
<svg version="1.1" id="Layer_1" xmlns="http://www.w3.org/2000/svg" xmlns:xlink="http://www.w3.org/1999/xlink" x="0px" y="0px"
	 width="256px" height="357px" viewBox="0 0 256 357" enable-background="new 0 0 256 357" xml:space="preserve">
<g>
	<path fill="none" d="M184.146,3.953c9.038,0,16.365,7.285,16.365,16.273c0,8.987-7.327,16.272-16.365,16.272
		c-9.043,0-16.368-7.285-16.368-16.272C167.778,11.238,175.107,3.953,184.146,3.953"/>
	<path d="M109.192,56.713c-51.935,0-94.034,27.317-94.033,61.019c0,33.7,42.1,61.017,94.033,61.017
		c51.933,0,94.033-27.319,94.033-61.017C203.225,84.031,161.122,56.713,109.192,56.713z M76.617,120.915
		c-8.352,0-15.359-6.741-15.359-15.044c0-8.304,7.007-15.271,15.359-15.271c8.353,0,15.131,6.967,15.131,15.271
		S84.969,120.915,76.617,120.915z M142.899,120.915c-8.356,0-15.378-6.736-15.378-15.044S134.542,90.6,142.899,90.6
		s15.13,6.962,15.13,15.271C158.029,114.18,151.257,120.915,142.899,120.915z"/>
	<path d="M109.192,178.749c-15.926,0-30.923-2.573-44.069-7.106c-1.905,10.509-2.948,21.881-2.948,33.752
		c0,45.243,15.12,83.113,35.53,93.68h22.973c20.399-10.565,35.53-48.437,35.53-93.68c0-11.872-1.045-23.243-2.948-33.752
		C140.114,176.175,125.117,178.749,109.192,178.749"/>
	<path d="M150.214,275.526c-3.418,0-6.661,0.599-9.586,1.661c-4.016,7.424-8.656,13.443-13.738,17.696
		c0.063,1.442,0.358,2.821,0.796,4.158h45.071c0.48-1.504,0.823-3.056,0.823-4.699C173.58,283.963,163.122,275.526,150.214,275.526"
		/>
	<path d="M77.684,277.067c-2.838-0.987-5.966-1.541-9.255-1.541c-12.899,0-23.35,8.437-23.35,18.816c0,1.644,0.338,3.195,0.83,4.699
		h45.051c0.408-1.273,0.704-2.579,0.792-3.944C86.536,290.812,81.782,284.669,77.684,277.067"/>
	<path d="M62.174,205.395c0-9.807,0.723-19.262,2.043-28.181c-13.751,5.183-23.724,20.597-23.724,38.81
		c0,20.351,12.456,37.209,28.714,40.201C64.75,241.469,62.174,224.062,62.174,205.395"/>
	<path d="M154.148,177.101c1.331,8.953,2.06,18.447,2.06,28.294c0,18.687-2.582,36.113-7.051,50.878
		c16.415-2.83,29.031-19.766,29.031-40.249C178.189,197.673,168.062,182.162,154.148,177.101"/>
	<path d="M40.579,76.011c-3.807-4.47-9.492-7.313-15.846-7.313c-11.466,0-20.762,9.241-20.762,20.643
		c0,8.415,5.068,15.648,12.33,18.863C19.286,95.853,27.981,84.732,40.579,76.011"/>
	<path d="M194.557,68.698c-6.542,0-12.375,3.012-16.181,7.712c12.407,8.741,20.926,19.836,23.788,32.136
		c7.702-3.019,13.154-10.477,13.154-19.206C215.318,77.941,206.021,68.698,194.557,68.698"/>
	<path d="M218.37,89.343c0-13.057-10.683-23.679-23.813-23.679c-6.287,0-12.213,2.434-16.645,6.752
		c-0.188-0.124-0.374-0.25-0.561-0.374c-17.094-11.091-39.413-17.517-63.292-18.286l13.677-42.987l37.008,8.662
		c-0.012,0.264-0.017,0.527-0.017,0.795c0,10.646,8.71,19.306,19.418,19.306c10.704,0,19.417-8.661,19.417-19.306
		c0-10.648-8.711-19.309-19.417-19.309c-8.321,0-15.434,5.232-18.194,12.559l-39.574-9.26c-1.55-0.363-3.129,0.525-3.609,2.039
		L107.678,53.69c-25.139,0.25-48.754,6.743-66.646,18.352c-0.011,0.006-0.019,0.014-0.029,0.02
		c-4.392-4.092-10.184-6.398-16.27-6.398c-13.132,0-23.815,10.622-23.815,23.678c0,8.501,4.606,16.288,11.909,20.487
		c-0.478,2.6-0.723,5.238-0.723,7.902c0,17.357,10.272,33.583,28.926,45.688c6.249,4.053,13.192,7.482,20.655,10.242
		c-0.078,0.471-0.164,0.937-0.239,1.408c-14.432,6.35-24.008,22.545-24.008,40.954c0,10.407,3.137,20.487,8.832,28.381
		c5.341,7.401,12.598,12.464,20.594,14.42c1.562,4.932,3.339,9.584,5.306,13.89c-1.232-0.144-2.48-0.222-3.741-0.222
		c-14.56,0-26.403,9.804-26.403,21.852c0,1.78,0.321,3.621,0.979,5.637c0.408,1.252,1.581,2.099,2.903,2.099h50.99l0.058,0.03h24.47
		l0.057-0.03h51.275c1.332,0,2.511-0.86,2.911-2.124c0.656-2.077,0.962-3.859,0.962-5.611c0-12.049-11.85-21.852-26.416-21.852
		c-1.357,0-2.698,0.087-4.02,0.255c1.966-4.296,3.738-8.933,5.302-13.854c8.066-1.883,15.4-6.923,20.806-14.345
		c5.768-7.917,8.94-18.046,8.94-28.525c0-18.599-9.706-34.848-24.332-41.091c-0.067-0.426-0.142-0.849-0.215-1.272
		c7.464-2.76,14.407-6.19,20.655-10.243c18.651-12.102,28.926-28.331,28.926-45.688c0-2.504-0.222-4.982-0.641-7.429
		C213.448,106.24,218.37,98.267,218.37,89.343L218.37,89.343z M184.146,6.989c7.339,0,13.312,5.936,13.312,13.237
		c0,7.299-5.974,13.238-13.312,13.238c-7.341,0-13.314-5.939-13.314-13.239S176.806,6.989,184.146,6.989L184.146,6.989z
		 M7.024,89.343c0-9.71,7.944-17.609,17.709-17.609c4.093,0,8.011,1.403,11.14,3.924C25.2,83.729,17.897,93.306,14.425,103.656
		C9.842,100.388,7.024,95.081,7.024,89.343L7.024,89.343z M103.861,181.687c0.757,0.026,1.516,0.047,2.278,0.062
		c0.147,0.004,0.294,0.008,0.442,0.011c0.869,0.016,1.739,0.023,2.611,0.023c0.871,0,1.741-0.008,2.61-0.023
		c0.148-0.003,0.297-0.007,0.445-0.011c0.758-0.016,1.517-0.035,2.274-0.062c0.065-0.003,0.132-0.006,0.199-0.009
		c12.673-0.464,24.901-2.524,36.125-6.029l0.28,1.895c0.671,4.504,1.175,9.091,1.516,13.727c0.005,0.067,0.008,0.135,0.013,0.204
		c0.079,1.077,0.15,2.151,0.206,3.232c0.014,0.23,0.022,0.464,0.031,0.693c0.049,0.934,0.093,1.864,0.127,2.8
		c0.018,0.493,0.027,0.991,0.043,1.487c0.021,0.688,0.044,1.378,0.057,2.066c0.021,1.211,0.033,2.422,0.033,3.639
		c0,1.22-0.015,2.438-0.035,3.651c-0.01,0.552-0.028,1.104-0.044,1.658c-0.016,0.609-0.034,1.218-0.054,1.82
		c-0.028,0.766-0.061,1.532-0.098,2.296c-0.014,0.311-0.03,0.623-0.046,0.937c-0.744,14.063-3.002,27.593-6.64,39.624
		c-0.913,3.013-1.908,5.945-2.997,8.771c-1.655,4.301-3.486,8.271-5.455,11.876c-0.098,0.18-0.195,0.36-0.297,0.535
		c-0.147,0.265-0.294,0.531-0.444,0.795c-0.054,0.096-0.11,0.193-0.165,0.284c-3.146,5.463-6.63,10.012-10.327,13.477
		c-0.053,0.049-0.101,0.094-0.154,0.142c-0.216,0.201-0.434,0.399-0.652,0.592c-0.237,0.212-0.475,0.413-0.712,0.615
		c-1.654,1.397-3.35,2.584-5.072,3.542h-21.54c-1.631-0.906-3.234-2.016-4.804-3.314c-0.196-0.164-0.391-0.33-0.586-0.498
		c-0.107-0.093-0.213-0.18-0.319-0.274c-0.128-0.114-0.256-0.23-0.383-0.348c-3.897-3.53-7.563-8.248-10.858-13.977
		c-0.044-0.081-0.09-0.158-0.137-0.236c-0.163-0.288-0.326-0.579-0.488-0.871c-0.087-0.156-0.173-0.312-0.26-0.471
		c-1.967-3.602-3.793-7.57-5.448-11.866c-1.094-2.837-2.09-5.78-3.008-8.806c-3.629-12.019-5.882-25.54-6.626-39.591
		c-0.016-0.316-0.033-0.631-0.047-0.948c-0.036-0.76-0.07-1.519-0.096-2.28c-0.022-0.608-0.039-1.22-0.055-1.828
		c-0.015-0.554-0.032-1.105-0.042-1.656c-0.022-1.212-0.036-2.426-0.036-3.649c0-1.213,0.013-2.421,0.034-3.631
		c0.013-0.675,0.036-1.344,0.055-2.019c0.015-0.51,0.025-1.021,0.043-1.532c0.033-0.907,0.077-1.817,0.124-2.725
		c0.013-0.251,0.023-0.503,0.037-0.753c0.058-1.056,0.125-2.107,0.199-3.159c0.007-0.088,0.012-0.179,0.019-0.265
		c0.335-4.612,0.836-9.176,1.5-13.656l0.241-1.626c0.02-0.126,0.036-0.254,0.056-0.38c11.227,3.504,23.454,5.566,36.13,6.028
		C103.729,181.681,103.795,181.684,103.861,181.687L103.861,181.687z M64.792,251.794c-12.406-4.995-21.247-19.412-21.247-35.771
		c0-14.449,6.616-27.268,16.901-33.588c-0.105,0.894-0.202,1.787-0.293,2.688c-0.018,0.17-0.032,0.339-0.051,0.511
		c-0.144,1.444-0.272,2.896-0.384,4.354c-0.033,0.427-0.068,0.857-0.098,1.286c-0.047,0.664-0.09,1.326-0.129,1.995
		c-0.046,0.759-0.086,1.521-0.124,2.282c-0.026,0.563-0.055,1.125-0.077,1.688c-0.043,1.057-0.076,2.117-0.103,3.18
		c-0.01,0.379-0.018,0.758-0.024,1.138c-0.025,1.278-0.042,2.561-0.042,3.839c0,0.903,0.009,1.805,0.021,2.703
		c0.004,0.256,0.009,0.511,0.013,0.765c0.013,0.723,0.028,1.44,0.049,2.159c0.006,0.202,0.01,0.405,0.016,0.606
		c0.026,0.835,0.058,1.672,0.094,2.504c0.016,0.349,0.033,0.694,0.05,1.042c0.024,0.504,0.051,1.008,0.08,1.507
		c0.024,0.419,0.047,0.841,0.072,1.261c0.019,0.306,0.042,0.617,0.063,0.926c0.068,1.02,0.145,2.037,0.228,3.054
		c0.009,0.104,0.017,0.202,0.025,0.306C60.704,232.551,62.372,242.532,64.792,251.794L64.792,251.794z M84.458,296.009H48.277
		c-0.098-0.577-0.145-1.128-0.145-1.666c0-8.701,9.105-15.78,20.297-15.78c2.469,0,4.869,0.343,7.155,1.019
		c3.519,6.318,7.447,11.541,11.707,15.606c0.104,0.1,0.208,0.198,0.312,0.297c0.185,0.173,0.364,0.356,0.55,0.524H84.458
		L84.458,296.009z M170.525,294.343c0,0.53-0.049,1.08-0.146,1.666h-40.149c0.182-0.165,0.356-0.344,0.535-0.512
		c0.115-0.11,0.23-0.222,0.349-0.333c4.225-4.04,8.127-9.223,11.625-15.483c2.384-0.742,4.89-1.119,7.476-1.119
		C161.416,278.562,170.525,285.642,170.525,294.343L170.525,294.343z M157.915,182.267c10.349,6.265,17.222,19.373,17.222,33.757
		c0,16.551-8.986,31.037-21.581,35.896c2.433-9.28,4.108-19.288,4.989-29.641c0.014-0.141,0.023-0.283,0.035-0.427
		c0.07-0.845,0.133-1.688,0.193-2.54c0.033-0.453,0.064-0.911,0.095-1.367c0.023-0.404,0.047-0.811,0.07-1.215
		c0.026-0.517,0.054-1.035,0.081-1.557c0.018-0.339,0.031-0.68,0.049-1.021c0.036-0.836,0.068-1.677,0.095-2.519
		c0.007-0.194,0.009-0.389,0.015-0.582c0.021-0.728,0.037-1.457,0.051-2.188c0.006-0.253,0.01-0.507,0.013-0.759
		c0.014-0.899,0.02-1.803,0.02-2.709c0-1.284-0.018-2.565-0.04-3.848c-0.008-0.379-0.018-0.759-0.024-1.139
		c-0.026-1.046-0.06-2.088-0.103-3.129c-0.021-0.55-0.05-1.1-0.074-1.646c-0.038-0.81-0.081-1.62-0.128-2.427
		c-0.041-0.652-0.083-1.305-0.127-1.954c-0.034-0.478-0.072-0.953-0.11-1.429c-0.111-1.429-0.236-2.848-0.376-4.261
		c-0.022-0.194-0.038-0.389-0.059-0.583c-0.094-0.895-0.192-1.785-0.297-2.677C157.917,182.291,157.916,182.277,157.915,182.267
		L157.915,182.267z M154.312,168.066l-2.053,0.708c-11.452,3.95-24.214,6.278-37.231,6.817c-0.133,0.005-0.266,0.014-0.403,0.019
		c-0.734,0.026-1.471,0.049-2.206,0.064c-0.191,0.003-0.383,0.011-0.576,0.015c-0.884,0.018-1.767,0.025-2.651,0.025
		s-1.769-0.011-2.652-0.025c-0.191-0.004-0.381-0.01-0.574-0.015c-0.737-0.018-1.473-0.038-2.209-0.064
		c-0.132-0.005-0.266-0.013-0.397-0.019c-13.015-0.539-25.781-2.867-37.235-6.817l-2.042-0.703
		c-27.383-10.006-45.871-28.822-45.871-50.341c0-2.856,0.331-5.663,0.959-8.408l0.101-0.409
		c2.742-11.353,10.715-21.869,23.053-30.411l1.976-1.368c16.517-10.723,39.504-17.387,64.89-17.387
		c25.673,0,48.892,6.816,65.448,17.752l1.971,1.39c12.143,8.558,19.953,19.051,22.579,30.345l0.018,0.073
		c0.631,2.753,0.964,5.564,0.964,8.427C200.172,139.246,181.687,158.06,154.312,168.066L154.312,168.066z M204.121,104.166
		c-3.351-10.389-10.554-20.018-21.14-28.145c3.19-2.754,7.271-4.286,11.576-4.286c9.767,0,17.708,7.897,17.708,17.607
		C212.265,95.458,209.157,100.975,204.121,104.166L204.121,104.166z"/>
	<path fill="none" stroke="#000000" stroke-width="5.1017" stroke-miterlimit="10" d="M76.617,90.6
		c-8.352,0-15.359,6.967-15.359,15.271s7.007,15.044,15.359,15.044c8.353,0,15.131-6.74,15.131-15.044S84.969,90.6,76.617,90.6"/>
	<path fill="none" stroke="#000000" stroke-width="5.1017" stroke-miterlimit="10" d="M142.899,90.6
		c-8.356,0-15.378,6.962-15.378,15.271c0,8.308,7.021,15.044,15.378,15.044s15.13-6.736,15.13-15.044S151.257,90.6,142.899,90.6"/>
	<path d="M144.29,143.676c-1.19-1.186-3.122-1.186-4.317-0.001c-5.977,5.937-15.858,8.823-30.212,8.823
		c-0.041,0-0.079,0.01-0.12,0.012c-0.04-0.001-0.078-0.012-0.12-0.012c-14.354,0-24.234-2.886-30.204-8.82
		c-1.192-1.186-3.125-1.186-4.317,0c-1.191,1.183-1.191,3.108,0,4.292c7.173,7.134,18.466,10.599,34.522,10.599
		c0.042,0,0.079-0.012,0.121-0.012c0.041,0,0.078,0.012,0.118,0.012c16.055,0,27.348-3.467,34.529-10.598
		C145.48,146.784,145.482,144.861,144.29,143.676"/>
</g>
<path fill="none" d="M206.071,205.32c0.285,0.282,0.569,0.567,0.854,0.849"/>
</svg>
